<svg xmlns="http://www.w3.org/2000/svg" width="260" height="260" viewBox="0 0 284 300" style="enable-background:new 0 0 284 300" xml:space="preserve">
    <style>.st0{display:none}.st5{font-family:&apos;ArialRoundedMTBold&apos;}.st6{font-size:48px}.st7{letter-spacing:-2}.st9{fill:none;stroke:#2b1c1c;stroke-width:7;stroke-linecap:round;stroke-linejoin:round;stroke-miterlimit:10}.st10{fill:#d68024}.st19{fill:#36612f}.st20{fill:#509146}</style>
    <g id="Layer_2_copy">
        <path class="st10" d="M207.97 142.97c-2.28 10.05-5.65 19.47-8.44 26.86-1.23 3.27-3.56 8.47-5.21 11.55-10.77 20.13-20.2 34.3-28.44 44.42-17.92 22.01-30.12 24.79-37.88 27.79-20.73 8.04-62.74-3.34-52.79-27.26.1-.24.23-.46.33-.7 3.71-8.91 4.62-22.89 3.63-38.04-.52-7.91-1.56-16.13-2.99-24.13-4.07-21.91 2.13-42.63 14.05-58.89.25-.34.5-.68.77-1.02 7.53-9.97 17.23-18.19 27.99-23.89a80.36 80.36 0 0 1 9.19-4.15c5.23-1.98 10.63-3.36 16.09-4.07 8.85-1.15 17.33-.24 25.07 2.3 6.46 2.11 12.41 5.36 17.64 9.49 1.63 1.29 3.2 2.67 4.69 4.13a59.497 59.497 0 0 1 14.63 23.26 58.77 58.77 0 0 1 3.05 15.41c.04.54.07 1.08.09 1.61.18 5.01-.29 10.15-1.47 15.33z"/>
        <path d="M188.67 151.59c-.22 2.53-.59 5.08-1.13 7.65-1.89 9.18-4.61 17.83-7 24.89-8.64 17.18-16.3 29.65-23.07 38.8-16.29 22.01-27.37 24.79-34.42 27.79-6.26 2.67-14.66 3.2-22.75 1.83-.01 0-.03 0-.04-.01-16.24-2.74-31.23-13.12-25.19-29.08.09-.24.21-.46.3-.7 3.37-8.91 4.2-22.89 3.3-38.04-.47-7.91-1.42-16.13-2.72-24.13a80.376 80.376 0 0 1 1.96-35.54c.84-1.43 1.71-2.84 2.63-4.21.23-.34.45-.68.7-1.02 6.84-9.97 15.66-18.19 25.44-23.89 2.72-1.58 5.51-2.97 8.35-4.15 4.75-1.98 9.66-3.36 14.62-4.07 8.04-1.15 15.75-.24 22.78 2.3 5.87 2.11 11.28 5.36 16.03 9.49a55.25 55.25 0 0 1 4.26 4.13c5.96 6.44 10.56 14.41 13.3 23.26a63.83 63.83 0 0 1 2.77 15.41c.04.54.06 1.08.08 1.61.09 2.53.03 5.09-.2 7.68z" style="fill:#f0b113"/>
        <path class="st10" d="m166.14 223.78-.26 2.02c-17.92 22.01-30.12 24.79-37.88 27.79-20.73 8.04-62.74-3.34-52.79-27.26.1-.24.23-.46.33-.7 3.71-8.91 4.62-22.89 3.63-38.04 7.28-5.78 16.79-8.74 26.73-7.48l29.27 3.71c19.59 2.48 33.45 20.37 30.97 39.96z"/>
        <path d="m162.64 223.78-.26 2.02c-17.92 22.01-30.12 24.79-37.88 27.79-19.98 7.75-59.73-2.54-53.67-24.72.23-.83.52-1.68.88-2.54.1-.24.23-.46.33-.7 3.71-8.91 4.62-22.89 3.63-38.04 7.28-5.78 16.79-8.74 26.73-7.48l29.27 3.71c14.5 1.84 25.87 12.12 29.78 25.29 1.38 4.61 1.83 9.58 1.19 14.67z" style="fill:#ad5b1c"/>
        <path d="M164.95 209.11c-.05.88-.13 1.77-.24 2.67l-.26 2.02c-17.92 22.01-30.12 24.79-37.88 27.79-15.92 6.17-44.39.9-52.24-12.72.23-.83.52-1.68.88-2.54.1-.24.23-.46.33-.7 3.71-8.91 4.62-22.89 3.63-38.04 7.28-5.78 16.79-8.74 26.73-7.48l29.27 3.71c14.5 1.84 25.87 12.12 29.78 25.29z" style="fill:#d95e00"/>
        <ellipse transform="rotate(-72.686 126.664 221.723)" cx="126.65" cy="221.72" rx="13.33" ry="7.36" style="fill:#4f2402"/>
        <ellipse transform="rotate(-7.297 97.16 218.061)" cx="97.15" cy="217.99" rx="7.36" ry="13.33" style="fill:#4f2402;stroke:#2b1c1c;stroke-miterlimit:10"/>
        <path d="M99.82 110.36c6.73-6.73 14.72-9.65 17.84-6.53 3.12 3.12-1.74 7.38-8.47 14.11-6.73 6.73-12.78 13.39-15.9 10.27s-.2-11.12 6.53-17.85z" style="fill:#ffeeb5"/>
    </g>
    <g id="Layer_2">
        <path class="st9" d="m166.14 223.78-.26 2.02c-17.92 22.01-30.12 24.79-37.88 27.79-20.73 8.04-62.74-3.34-52.79-27.26.1-.24.23-.46.33-.7 3.71-8.91 4.62-22.89 3.63-38.04 7.28-5.78 16.79-8.74 26.73-7.48l29.27 3.71c19.59 2.48 33.45 20.37 30.97 39.96z"/>
        <path class="st9" d="m166.14 223.78-.26 2.02c-17.92 22.01-30.12 24.79-37.88 27.79-20.73 8.04-62.74-3.34-52.79-27.26.1-.24.23-.46.33-.7 3.71-8.91 4.62-22.89 3.63-38.04 7.28-5.78 16.79-8.74 26.73-7.48l29.27 3.71c19.59 2.48 33.45 20.37 30.97 39.96z"/>
        <path class="st9" d="m166.14 223.78-.26 2.02c-17.92 22.01-30.12 24.79-37.88 27.79-20.73 8.04-62.74-3.34-52.79-27.26.1-.24.23-.46.33-.7 3.71-8.91 4.62-22.89 3.63-38.04 7.28-5.78 16.79-8.74 26.73-7.48l29.27 3.71c19.59 2.48 33.45 20.37 30.97 39.96z"/>
        <ellipse transform="rotate(-72.686 126.664 221.723)" class="st9" cx="126.65" cy="221.72" rx="13.33" ry="7.36"/>
        <path class="st19" d="M229.29 58.12c.08 10.38-4.38 30.18-26.03 45.2-.02-.03-.03-.05-.05-.08a59.703 59.703 0 0 0-3.58-6.22 59.899 59.899 0 0 0-5.92-7.54c-.65-.72-1.34-1.43-2.04-2.12a59.184 59.184 0 0 0-4.69-4.13c-.38-.3-.76-.59-1.15-.88 15.1.59 30.71-16.46 38.17-25.9 1.66-2.1 5.27-.96 5.29 1.67z"/>
        <path class="st20" d="M229.29 58.12c.08 10.38-4.38 30.18-26.03 45.2-.02-.03-.03-.05-.05-.08a59.703 59.703 0 0 0-3.58-6.22 59.899 59.899 0 0 0-5.92-7.54c-.65-.72-1.34-1.43-2.04-2.12a59.184 59.184 0 0 0-4.69-4.13c-.38-.3-.76-.59-1.15-.88 15.1.59 30.71-16.46 38.17-25.9 1.66-2.1 5.27-.96 5.29 1.67z"/>
        <path class="st19" d="M228.98 63.27c-1.3 10.96-7.26 27.24-25.72 40.05-.02-.03-.03-.05-.05-.08a59.703 59.703 0 0 0-3.58-6.22 59.708 59.708 0 0 0-5.64-7.23c13.42-2.7 26.47-17.08 33.09-25.46.51-.64 1.19-.98 1.9-1.06zM117.71 80.37c-.43.22-.86.46-1.28.71-6.43 3.7-12.43 8.31-17.76 13.65l-.01.01c-1.1 1.11-2.18 2.25-3.22 3.41C76.41 80.23 74.65 59.51 76.21 49.3c.4-2.61 4.13-3.22 5.47-.9 6.18 10.71 20.43 31.28 36.03 31.97z"/>
        <path class="st20" d="M117.71 80.37c-.43.22-.86.46-1.28.71a84.125 84.125 0 0 0-7.74 5.05c-3.54 2.59-6.9 5.47-10.02 8.6l-.01.01c-1.1 1.11-2.18 2.25-3.22 3.41-16.57-15.6-20.05-33.33-19.64-44.39.06-1.65.21-3.14.41-4.46.4-2.61 4.13-3.22 5.47-.9 6.18 10.71 20.43 31.28 36.03 31.97z"/>
        <path class="st19" d="M108.69 86.13c-3.54 2.59-6.9 5.47-10.02 8.6l-.01.01c-1.1 1.11-2.18 2.25-3.22 3.41-16.57-15.6-20.05-33.33-19.64-44.39.91.07 1.8.53 2.32 1.43 5.45 9.44 17.17 26.56 30.57 30.94z"/>
        <ellipse transform="rotate(-7.297 97.16 218.061)" class="st9" cx="97.15" cy="217.99" rx="7.36" ry="13.33"/>
        <path class="st9" d="M229.29 58.12c.01 1.53-.07 3.26-.31 5.15-1.3 10.96-7.26 27.24-25.72 40.05-.02-.03-.03-.05-.05-.08a59.703 59.703 0 0 0-3.58-6.22 59.708 59.708 0 0 0-5.64-7.23c-.09-.11-.19-.21-.28-.31-.65-.72-1.34-1.43-2.04-2.12a59.184 59.184 0 0 0-4.69-4.13c-.38-.3-.76-.59-1.15-.88 15.1.59 30.71-16.46 38.17-25.9 1.66-2.1 5.27-.96 5.29 1.67zM117.71 80.37c-.43.22-.86.46-1.28.71-6.43 3.7-12.43 8.31-17.76 13.65l-.01.01c-1.1 1.11-2.18 2.25-3.22 3.41C76.41 80.23 74.65 59.51 76.21 49.3c.4-2.61 4.13-3.22 5.47-.9 6.18 10.71 20.43 31.28 36.03 31.97z"/>
        <path class="st9" d="M207.97 142.97c-2.28 10.05-5.65 19.47-8.44 26.86-1.23 3.27-3.56 8.47-5.21 11.55-10.77 20.13-20.2 34.3-28.44 44.42-17.92 22.01-30.12 24.79-37.88 27.79-20.73 8.04-62.74-3.34-52.79-27.26.1-.24.23-.46.33-.7 3.71-8.91 4.62-22.89 3.63-38.04-.52-7.91-1.56-16.13-2.99-24.13-4.07-21.91 2.13-42.63 14.05-58.89.25-.34.5-.68.77-1.02 1.41-1.86 2.89-3.66 4.44-5.4 1.04-1.16 2.12-2.3 3.22-3.41l.01-.01c5.33-5.34 11.33-9.95 17.76-13.65.42-.25.85-.49 1.28-.71.42-.25.85-.48 1.28-.71a80.36 80.36 0 0 1 9.19-4.15c5.23-1.98 10.63-3.36 16.09-4.07 8.85-1.15 17.33-.24 25.07 2.3a56.885 56.885 0 0 1 16.49 8.61c.39.29.77.58 1.15.88 1.63 1.29 3.2 2.67 4.69 4.13.7.69 1.39 1.4 2.04 2.12 2.17 2.35 4.15 4.87 5.92 7.54 1.31 1.99 2.51 4.07 3.58 6.22.02.03.03.05.05.08 1.17 2.36 2.19 4.79 3.04 7.3a58.77 58.77 0 0 1 3.05 15.41c.04.54.07 1.08.09 1.61.18 5.01-.29 10.15-1.47 15.33z"/>
        <path d="M165.89 81.66c.35-1.05 2.23-1.35 4.19-.69 1.96.67 3.26 2.05 2.91 3.1-.35 1.05-2.23 1.35-4.19.69-.98-.33-1.8-.85-2.32-1.41-.53-.56-.77-1.16-.59-1.69z" style="fill:none;stroke:#663a3a;stroke-width:4;stroke-linecap:round;stroke-linejoin:round;stroke-miterlimit:10"/>
    </g>
    <path d="M125.36 225.01c1.65 2.15 2.99 5.26 2.57 7.62-1.1 6.13-9.8 9.71-19.44 7.98s-16.57-8.09-15.47-14.22c.48-2.7 2.45-4.91 5.31-6.38" style="fill:none;stroke:#f5b411;stroke-width:5;stroke-linecap:round;stroke-linejoin:round;stroke-miterlimit:10" id="Layer_4"/>
</svg>