<svg xmlns="http://www.w3.org/2000/svg" width="210" height="50" viewBox="0 0 1256 308" style="enable-background:new 0 0 1256 308" xml:space="preserve"><style>.st0{display:none}.st5{font-family:&apos;ArialRoundedMTBold&apos;}.st6{font-size:142px}.st7{letter-spacing:-9}.st9{fill:none;stroke:#2b1c1c;stroke-width:7;stroke-linecap:round;stroke-linejoin:round;stroke-miterlimit:10}.st10{fill:#d68024}.st19{fill:none;stroke:#3b2626;stroke-width:7;stroke-linecap:round;stroke-linejoin:round;stroke-miterlimit:10}.st20{fill:#36612f}.st21{fill:#509146}</style><g id="Layer_5"><path style="fill:none" d="M209.26 137.58h1212v170h-1212z"/><text transform="translate(209.26 240.959)"><tspan x="0" y="0" class="st5 st6 st7" style="fill:#f5b411">manga</tspan><tspan x="419.93" y="0" class="st5 st6 st7"> </tspan><tspan x="445.63" y="0" class="st5 st6 st7" style="fill:#d93d11">carabao</tspan></text></g><g id="Layer_2_copy"><path class="st10" d="M176 170.13c-1.75 7.64-4.34 14.8-6.48 20.42-.94 2.49-2.73 6.44-4 8.78-8.27 15.3-15.51 26.07-21.84 33.76-13.76 16.73-23.13 18.84-29.09 21.12-15.92 6.11-48.18-2.54-40.54-20.72.08-.18.18-.35.25-.53 2.85-6.77 3.55-17.4 2.79-28.91-.4-6.01-1.2-12.26-2.3-18.34-3.13-16.65 1.64-32.4 10.79-44.76.19-.26.38-.52.59-.78 5.78-7.58 13.23-13.83 21.49-18.16 2.3-1.2 4.65-2.26 7.06-3.15 4.02-1.5 8.16-2.55 12.36-3.09 6.8-.87 13.31-.18 19.25 1.75 4.96 1.6 9.53 4.07 13.55 7.21a45.05 45.05 0 0 1 14.83 20.82 44.11 44.11 0 0 1 2.34 11.71c.03.41.05.82.07 1.22.15 3.8-.22 7.71-1.12 11.65z"/><path d="M161.18 176.68c-.17 1.92-.45 3.86-.87 5.81-1.45 6.98-3.54 13.55-5.37 18.92-6.64 13.06-12.52 22.54-17.72 29.49-12.51 16.73-21.02 18.84-26.44 21.12-4.81 2.03-11.26 2.43-17.47 1.39-.01 0-.02 0-.03-.01-12.47-2.08-23.98-9.97-19.35-22.1.07-.18.16-.35.23-.53 2.59-6.77 3.22-17.4 2.53-28.91-.36-6.01-1.09-12.26-2.09-18.34a60.49 60.49 0 0 1 1.51-27.01c.64-1.09 1.31-2.16 2.02-3.2.17-.26.35-.52.54-.78 5.26-7.58 12.02-13.83 19.53-18.16 2.09-1.2 4.23-2.26 6.41-3.15 3.65-1.5 7.42-2.55 11.23-3.09 6.18-.87 12.09-.18 17.5 1.75 4.51 1.6 8.66 4.07 12.31 7.21 1.14.98 2.23 2.03 3.27 3.14 4.58 4.89 8.11 10.95 10.21 17.68 1.17 3.73 1.9 7.66 2.13 11.71.03.41.05.82.06 1.22.08 1.92.03 3.87-.14 5.84z" style="fill:#f0b113"/><path class="st10" d="m143.88 231.55-.2 1.54c-13.76 16.73-23.13 18.84-29.09 21.12-15.92 6.11-48.18-2.54-40.54-20.72.08-.18.18-.35.25-.53 2.85-6.77 3.55-17.4 2.79-28.91a27.63 27.63 0 0 1 20.53-5.69l22.48 2.82c15.04 1.88 25.68 15.48 23.78 30.37z"/><path d="m141.19 231.55-.2 1.54c-13.76 16.73-23.13 18.84-29.09 21.12-15.34 5.89-45.87-1.93-41.21-18.79.18-.63.4-1.28.68-1.93.08-.18.18-.35.25-.53 2.85-6.77 3.55-17.4 2.79-28.91a27.63 27.63 0 0 1 20.53-5.69l22.48 2.82c11.13 1.4 19.87 9.21 22.87 19.22 1.04 3.5 1.39 7.28.9 11.15z" style="fill:#ad5b1c"/><path d="M142.96 220.4c-.04.67-.1 1.35-.18 2.03l-.2 1.54c-13.76 16.73-23.13 18.84-29.09 21.12-12.23 4.69-34.09.68-40.12-9.67.18-.63.4-1.28.68-1.93.08-.18.18-.35.25-.53 2.85-6.77 3.55-17.4 2.79-28.91a27.63 27.63 0 0 1 20.53-5.69l22.48 2.82c11.13 1.39 19.86 9.21 22.86 19.22z" style="fill:#c95f0e"/><ellipse transform="rotate(-72.368 113.563 229.992)" cx="113.55" cy="229.98" rx="10.14" ry="5.64" style="fill:#4f2402"/><ellipse transform="rotate(-7.432 90.903 227.117)" cx="90.9" cy="227.14" rx="5.65" ry="10.14" style="fill:#4f2402;stroke:#2b1c1c;stroke-miterlimit:10"/><path d="M92.95 145.34c5.17-5.12 11.3-7.34 13.7-4.96 2.4 2.37-1.34 5.61-6.51 10.72s-9.81 10.18-12.21 7.8c-2.39-2.37-.15-8.44 5.02-13.56z" style="fill:#ffeeb5"/></g><g id="Layer_2"><path class="st9" d="m143.88 231.55-.2 1.54c-13.76 16.73-23.13 18.84-29.09 21.12-15.92 6.11-48.18-2.54-40.54-20.72.08-.18.18-.35.25-.53 2.85-6.77 3.55-17.4 2.79-28.91a27.63 27.63 0 0 1 20.53-5.69l22.48 2.82c15.04 1.88 25.68 15.48 23.78 30.37z"/><path class="st9" d="m143.88 231.55-.2 1.54c-13.76 16.73-23.13 18.84-29.09 21.12-15.92 6.11-48.18-2.54-40.54-20.72.08-.18.18-.35.25-.53 2.85-6.77 3.55-17.4 2.79-28.91a27.63 27.63 0 0 1 20.53-5.69l22.48 2.82c15.04 1.88 25.68 15.48 23.78 30.37z"/><path class="st19" d="m143.88 231.55-.2 1.54c-13.76 16.73-23.13 18.84-29.09 21.12-15.92 6.11-48.18-2.54-40.54-20.72.08-.18.18-.35.25-.53 2.85-6.77 3.55-17.4 2.79-28.91a27.63 27.63 0 0 1 20.53-5.69l22.48 2.82c15.04 1.88 25.68 15.48 23.78 30.37z"/><ellipse transform="rotate(-72.368 113.563 229.992)" class="st19" cx="113.55" cy="229.98" rx="10.14" ry="5.64"/><path class="st20" d="M192.37 105.63c.06 7.89-3.36 22.94-19.99 34.35-.02-.02-.02-.04-.04-.06-.82-1.63-1.74-3.22-2.75-4.73a45.595 45.595 0 0 0-4.55-5.73c-.5-.55-1.03-1.09-1.57-1.61a44.704 44.704 0 0 0-4.48-3.81c11.6.45 23.58-12.51 29.31-19.69 1.28-1.58 4.06-.71 4.07 1.28z"/><path class="st21" d="M192.37 105.63c.06 7.89-3.36 22.94-19.99 34.35-.02-.02-.02-.04-.04-.06-.82-1.63-1.74-3.22-2.75-4.73a45.595 45.595 0 0 0-4.55-5.73c-.5-.55-1.03-1.09-1.57-1.61a44.704 44.704 0 0 0-4.48-3.81c11.6.45 23.58-12.51 29.31-19.69 1.28-1.58 4.06-.71 4.07 1.28z"/><path class="st20" d="M192.13 109.55c-1 8.33-5.58 20.7-19.75 30.44-.02-.02-.02-.04-.04-.06-.82-1.63-1.74-3.22-2.75-4.73-1.3-1.94-2.75-3.78-4.33-5.5 10.31-2.05 20.33-12.98 25.41-19.35.4-.48.92-.74 1.46-.8zM106.69 122.55c-.33.17-.66.35-.98.54a65.455 65.455 0 0 0-13.64 10.37l-.01.01c-.84.84-1.67 1.71-2.47 2.59-14.61-13.62-15.97-29.37-14.77-37.13.31-1.98 3.17-2.45 4.2-.68 4.74 8.14 15.69 23.77 27.67 24.3z"/><path class="st21" d="M106.69 122.55c-.33.17-.66.35-.98.54a64.61 64.61 0 0 0-5.94 3.84c-2.72 1.97-5.3 4.16-7.69 6.54l-.01.01c-.84.84-1.67 1.71-2.47 2.59-12.72-11.86-15.4-25.33-15.08-33.74.05-1.25.16-2.39.31-3.39.31-1.98 3.17-2.45 4.2-.68 4.73 8.13 15.68 23.76 27.66 24.29z"/><path class="st20" d="M99.76 126.92c-2.72 1.97-5.3 4.16-7.69 6.54l-.01.01c-.84.84-1.67 1.71-2.47 2.59-12.72-11.86-15.4-25.33-15.08-33.74.7.05 1.38.4 1.78 1.09 4.18 7.17 13.18 20.19 23.47 23.51z"/><ellipse transform="rotate(-7.432 90.903 227.117)" class="st19" cx="90.9" cy="227.14" rx="5.65" ry="10.14"/><path class="st19" d="M192.37 105.63c.01 1.16-.05 2.48-.24 3.91-1 8.33-5.58 20.7-19.75 30.44-.02-.02-.02-.04-.04-.06-.82-1.63-1.74-3.22-2.75-4.73-1.3-1.94-2.75-3.78-4.33-5.5-.07-.08-.15-.16-.21-.24-.5-.55-1.03-1.09-1.57-1.61a44.704 44.704 0 0 0-4.48-3.81c11.6.45 23.58-12.51 29.31-19.69 1.27-1.57 4.05-.7 4.06 1.29zM106.69 122.55c-.33.17-.66.35-.98.54a65.455 65.455 0 0 0-13.64 10.37l-.01.01c-.84.84-1.67 1.71-2.47 2.59-14.61-13.62-15.97-29.37-14.77-37.13.31-1.98 3.17-2.45 4.2-.68 4.74 8.14 15.69 23.77 27.67 24.3z"/><path class="st19" d="M176 170.13c-1.75 7.64-4.34 14.8-6.48 20.42-.94 2.49-2.73 6.44-4 8.78-8.27 15.3-15.51 26.07-21.84 33.76-13.76 16.73-23.13 18.84-29.09 21.12-15.92 6.11-48.18-2.54-40.54-20.72.08-.18.18-.35.25-.53 2.85-6.77 3.55-17.4 2.79-28.91-.4-6.01-1.2-12.26-2.3-18.34-3.13-16.65 1.64-32.4 10.79-44.76.19-.26.38-.52.59-.78 1.08-1.41 2.22-2.78 3.41-4.1.8-.88 1.63-1.75 2.47-2.59l.01-.01c4.09-4.06 8.7-7.56 13.64-10.37.32-.19.65-.37.98-.54.32-.19.65-.36.98-.54 2.3-1.2 4.65-2.26 7.06-3.15 4.02-1.5 8.16-2.55 12.36-3.09 6.8-.87 13.31-.18 19.25 1.75 4.6 1.49 8.86 3.72 12.66 6.54a44.704 44.704 0 0 1 4.48 3.81c.54.52 1.07 1.06 1.57 1.61 1.67 1.79 3.19 3.7 4.55 5.73 1.01 1.51 1.93 3.09 2.75 4.73.02.02.02.04.04.06.9 1.79 1.68 3.64 2.33 5.55a44.11 44.11 0 0 1 2.34 11.71c.03.41.05.82.07 1.22.15 3.79-.22 7.7-1.12 11.64z"/><path d="M143.68 123.53c.27-.8 1.71-1.03 3.22-.52 1.51.51 2.51 1.56 2.23 2.36-.27.8-1.71 1.03-3.22.52-.75-.25-1.38-.64-1.78-1.07-.4-.43-.58-.89-.45-1.29z" style="fill:none;stroke:#663a3a;stroke-width:4;stroke-linecap:round;stroke-linejoin:round;stroke-miterlimit:10"/></g><path d="M112.56 232.48c1.27 1.64 2.29 4 1.97 5.79-.84 4.66-7.53 7.38-14.93 6.07-7.4-1.31-12.72-6.15-11.88-10.81.37-2.06 1.88-3.73 4.08-4.85" style="fill:none;stroke:#f5b411;stroke-width:5;stroke-linecap:round;stroke-linejoin:round;stroke-miterlimit:10" id="Layer_4"/></svg>